<svg xmlns="http://www.w3.org/2000/svg" viewBox="0 0 800 400" fill="none">
  <defs>
    <linearGradient id="bodyGrad" x1="0" y1="0" x2="0" y2="1">
      <stop offset="0" stop-color="#9fd6f5"></stop>
      <stop offset="0.45" stop-color="#5fb3e0"></stop>
      <stop offset="1" stop-color="#1f5f96"></stop>
    </linearGradient>
    <linearGradient id="bellyGrad" x1="0" y1="0" x2="0" y2="1">
      <stop offset="0" stop-color="#e8f1f8" stop-opacity="0.9"></stop>
      <stop offset="1" stop-color="#9fd6f5" stop-opacity="0.7"></stop>
    </linearGradient>
    <radialGradient id="eyeGrad" cx="0.4" cy="0.4" r="0.6">
      <stop offset="0" stop-color="#fff"></stop>
      <stop offset="0.5" stop-color="#143f63"></stop>
      <stop offset="1" stop-color="#0c1c2e"></stop>
    </radialGradient>
    <filter id="soft" x="-20%" y="-20%" width="140%" height="140%">
      <feGaussianBlur stdDeviation="0.5"></feGaussianBlur>
    </filter>
  </defs>

  
  <path d="M70 200 Q30 140 20 100 Q60 130 110 175 Z" fill="url(#bodyGrad)" opacity="0.9"></path>
  <path d="M70 200 Q30 260 20 300 Q60 270 110 225 Z" fill="url(#bodyGrad)" opacity="0.9"></path>
  <path d="M50 200 Q40 165 35 145 Q70 165 105 195 Z" fill="#143f63" opacity="0.5"></path>
  <path d="M50 200 Q40 235 35 255 Q70 235 105 205 Z" fill="#143f63" opacity="0.5"></path>

  
  <path d="M100 200&#xA;           Q160 80 380 90&#xA;           Q580 100 720 200&#xA;           Q580 300 380 310&#xA;           Q160 320 100 200 Z" fill="url(#bodyGrad)"></path>

  
  <path d="M150 235&#xA;           Q280 320 480 305&#xA;           Q620 295 700 215&#xA;           Q580 285 380 295&#xA;           Q230 290 150 235 Z" fill="url(#bellyGrad)"></path>

  
  <path d="M280 90 Q340 30 410 60 Q380 90 340 95 Z" fill="#1f5f96" opacity="0.85"></path>
  <path d="M285 95 L320 65 M310 95 L350 60 M335 95 L380 60" stroke="#143f63" stroke-width="1.5" opacity="0.6"></path>

  
  <path d="M280 305 Q340 350 400 330 Q360 305 320 300 Z" fill="#1f5f96" opacity="0.85"></path>

  
  <path d="M380 215 Q470 240 510 300 Q420 285 380 250 Z" fill="#143f63" opacity="0.6"></path>

  
  <path d="M180 165 Q210 200 180 240" stroke="#143f63" stroke-width="2.5" fill="none" opacity="0.55"></path>
  <path d="M195 175 Q220 200 195 230" stroke="#143f63" stroke-width="1.5" fill="none" opacity="0.4"></path>

  
  <circle cx="170" cy="180" r="22" fill="#fff" opacity="0.85"></circle>
  <circle cx="172" cy="180" r="16" fill="url(#eyeGrad)"></circle>
  <circle cx="178" cy="174" r="5" fill="#fff"></circle>

  
  <path d="M105 205 Q120 215 140 210" stroke="#143f63" stroke-width="2" fill="none" opacity="0.7"></path>

  
  <g opacity="0.18" stroke="#143f63" stroke-width="1.2" fill="none">
    <path d="M250 160 Q260 175 250 190 M280 155 Q290 175 280 195 M310 152 Q320 175 310 198 M340 152 Q350 175 340 198 M370 152 Q380 175 370 198 M400 152 Q410 175 400 198 M430 155 Q440 175 430 195 M460 160 Q470 175 460 190 M490 165 Q500 178 490 192"></path>
    <path d="M250 200 Q260 215 250 230 M280 200 Q290 220 280 240 M310 200 Q320 222 310 244 M340 200 Q350 222 340 244 M370 200 Q380 222 370 244 M400 200 Q410 222 400 244 M430 200 Q440 220 430 240 M460 200 Q470 215 460 230 M490 200 Q500 213 490 226"></path>
  </g>

  
  <path d="M180 130 Q300 110 480 120 Q380 140 240 145 Z" fill="#fff" opacity="0.25" filter="url(#soft)"></path>
</svg>