<?xml version="1.0" encoding="UTF-8"?> <svg xmlns="http://www.w3.org/2000/svg" viewBox="0 0 499 76.13"><g id="Layer_2" data-name="Layer 2"><g id="Layer_1-2" data-name="Layer 1"><path d="M57,4.06a11.51,11.51,0,0,0-.62,4.07,18.56,18.56,0,0,0,.83,5.68c.56,1.78,1.22,2.66,2,2.66a6.85,6.85,0,0,1-3.86,1.46,4.32,4.32,0,0,1-3.7-2,36,36,0,0,1-3.18-6.21,25.29,25.29,0,0,0-2.13-4.53,2.79,2.79,0,0,0-2.25-1.51H24.71a3.46,3.46,0,0,0-2.92,1.61A6.28,6.28,0,0,0,20.64,9V35h2.09a19.8,19.8,0,0,0,9.17-2.25A19.15,19.15,0,0,0,39,26.59l.73-1.05H41V46.39H39.72l-.73-1a19.16,19.16,0,0,0-7.09-6.1,19.91,19.91,0,0,0-9.17-2.24H20.64V67.5A5.25,5.25,0,0,0,21.9,71a5.6,5.6,0,0,0,3.23,1.88l3.65.73v.89H0V73.6l3.65-.73A5.6,5.6,0,0,0,6.88,71a5.21,5.21,0,0,0,1.25-3.54V8.65A5.21,5.21,0,0,0,6.88,5.11,5.6,5.6,0,0,0,3.65,3.23L0,2.54v-1H58.91v1C58.07,2.54,57.45,3,57,4.06Z"></path><path d="M93.21,30.76a7.08,7.08,0,0,1,1.25,4.06,8.23,8.23,0,0,1-1.56,4.72,6.37,6.37,0,0,1-2.71,2.3,8.4,8.4,0,0,1-3.55.83,4.48,4.48,0,0,1-2.5-.62,6.74,6.74,0,0,0,.42-1.88,5.59,5.59,0,0,0-.89-2.92A6.5,6.5,0,0,0,81.33,35a6.12,6.12,0,0,0-3.24-1q-4.17,0-7.71,7.82V67.54A5.46,5.46,0,0,0,71.58,71,5.28,5.28,0,0,0,74.76,73l3.13.63v1H51.82V73.6L55,73A5.28,5.28,0,0,0,58.13,71a5.46,5.46,0,0,0,1.2-3.49v-34a5.46,5.46,0,0,0-1.2-3.49A5.35,5.35,0,0,0,55,28.15l-3.18-.61v-.93H70.38v11a22.06,22.06,0,0,1,6.51-8.4A13.42,13.42,0,0,1,85.08,26a8.88,8.88,0,0,1,5.11,1.57A11.51,11.51,0,0,1,93.21,30.76Z"></path><path d="M137,56.54a9.26,9.26,0,0,1,2.09,5.94,10,10,0,0,1-2.87,6.88,19.81,19.81,0,0,1-7.56,5,26,26,0,0,1-9.9,1.72,25.44,25.44,0,0,1-10-1.57,21.33,21.33,0,0,1-8-5.11q-7.5-7.19-7.5-18.76,0-11.79,7-19.08a20.59,20.59,0,0,1,7.14-4.75,24,24,0,0,1,17.83,0,21.77,21.77,0,0,1,7.25,4.75A24.14,24.14,0,0,1,139,45.35H105.83a41.48,41.48,0,0,0-.32,5.11,34.34,34.34,0,0,0,3.55,16.21q3.54,6.74,9.91,6.73a8.76,8.76,0,0,0,6.3-2.71A8.45,8.45,0,0,0,128,64.54a5.68,5.68,0,0,0-1.15-3.29,5,5,0,0,0-3-2,4.72,4.72,0,0,1,2-3.65,7.15,7.15,0,0,1,4.64-1.67Q134.92,53.9,137,56.54ZM109.42,31.88a32.65,32.65,0,0,0-3.17,10.66h19q-.84-7.62-3.13-11.16-2.61-4.06-6.25-4.07c-2.74,0-4.87,1.52-6.45,4.54Z"></path><path d="M143,57.29a7,7,0,0,1,5.89-2.76q4.17,0,5.68,2.13A7.19,7.19,0,0,1,156,61.2a7.86,7.86,0,0,0-3.81,2,4.9,4.9,0,0,0-1.72,3.6c0,1.81,1,3.35,3.08,4.64a15,15,0,0,0,8.08,1.93,16.83,16.83,0,0,0,9.12-2.45c2.61-1.63,3.91-3.74,3.91-6.31A6.68,6.68,0,0,0,172.76,60a20.71,20.71,0,0,0-5.94-4.17q-1.45-.72-4.38-2c-1.39-.55-2.43-1-3.13-1.35q-9.59-3.86-13.45-8.66a10,10,0,0,1-2.5-6.88,8.4,8.4,0,0,1,1.31-4.43,13.92,13.92,0,0,1,3.7-3.91A17.66,17.66,0,0,1,154.21,26a28.35,28.35,0,0,1,7.61-1,31.71,31.71,0,0,1,10.89,1.67,15.82,15.82,0,0,1,6.88,4.48,9.12,9.12,0,0,1,2.35,6,6.31,6.31,0,0,1-1.77,4.27,6,6,0,0,1-4.69,2,7.91,7.91,0,0,1-1.46-.1,6.43,6.43,0,0,1-3.65-2.24A4.42,4.42,0,0,1,169,37.64a4.77,4.77,0,0,0,3.13-1.46A4.46,4.46,0,0,0,173.48,33q0-2.72-3-4.28a14.88,14.88,0,0,0-7-1.56,13.16,13.16,0,0,0-7.62,2.29q-3.33,2.3-3.33,5.53a5.7,5.7,0,0,0,1.93,4.17,21.62,21.62,0,0,0,6,3.75c1.39.67,4,1.78,7.82,3.34Q178,50,181.94,55.26a10.83,10.83,0,0,1,2.5,7.3,9.24,9.24,0,0,1-1.46,4.9,15.1,15.1,0,0,1-4.17,4.37,20.32,20.32,0,0,1-6.72,3.08,31.28,31.28,0,0,1-8.6,1.2,39.65,39.65,0,0,1-10.33-1.41,23.12,23.12,0,0,1-8.76-4.32,9.1,9.1,0,0,1-3.54-7.3A9.28,9.28,0,0,1,143,57.29Z"></path><path d="M243.25,73.61v.93H217.8V73.6l2.61-.63A6,6,0,0,0,223.49,71a5,5,0,0,0,1.2-3.39v-27q0-6.46-2.35-10a7.41,7.41,0,0,0-6.52-3.54,10.79,10.79,0,0,0-5.37,1.66,15,15,0,0,0-4.74,4.33,9.35,9.35,0,0,0-1.88,5.48V67.66a5,5,0,0,0,1.2,3.39A6,6,0,0,0,208.11,73l2.61.63v.93H185.28V73.6L188.4,73A5.28,5.28,0,0,0,191.58,71a5.46,5.46,0,0,0,1.2-3.49v-59a5.49,5.49,0,0,0-1.2-3.5,5.32,5.32,0,0,0-3.18-1.92l-3.12-.63v-1h18.55v28.9a16.57,16.57,0,0,1,6-4.69A18.07,18.07,0,0,1,217.65,24a22,22,0,0,1,7.2,1.15,16.78,16.78,0,0,1,5.62,3.12,14.57,14.57,0,0,1,5.22,11.37V67.54a5.46,5.46,0,0,0,1.2,3.49A5.28,5.28,0,0,0,240.07,73Z"></path><path d="M303.82,54.74a22.54,22.54,0,0,1-8.34,15.32,25.15,25.15,0,0,1-7.82,4.43,27.5,27.5,0,0,1-9.38,1.62,34,34,0,0,1-12.83-2.45,30.5,30.5,0,0,1-10.53-7Q244.5,56,244.49,38.09T254.82,9.42a29.5,29.5,0,0,1,10.18-7A31.32,31.32,0,0,1,277.15,0Q286.23,0,292,3a20.68,20.68,0,0,1,8.34,7.2,15,15,0,0,1,2.55,7.71,11.24,11.24,0,0,1-2.13,6.52,7.29,7.29,0,0,1-6.42,3.07,7.15,7.15,0,0,1-4.64-1.66,4.77,4.77,0,0,1-2-3.65,4.91,4.91,0,0,0,3-2,5.56,5.56,0,0,0,1.15-3.28A19.37,19.37,0,0,0,289,6.78q-2.82-4.69-10.74-4.7-8.44,0-13.56,7.41-6.26,9.17-6.25,28.56,0,19.71,6.36,28.47a17.21,17.21,0,0,0,6.36,5.68A18.51,18.51,0,0,0,279.61,74a18.09,18.09,0,0,0,6.88-1.45,25.84,25.84,0,0,0,6.68-4.07,21.66,21.66,0,0,0,5.05-6.1,20.6,20.6,0,0,0,2.56-7.66Z"></path><path d="M355.33,73.61v.93H336.77v-4.9a18.83,18.83,0,0,1-7.2,5.21,15.42,15.42,0,0,1-6.67,1.25q-8.76,0-13.71-3.44a11,11,0,0,1-4.95-9.59,9.91,9.91,0,0,1,2.08-5.89A19.37,19.37,0,0,1,312.37,52a34.89,34.89,0,0,1,10.74-3.81,68.81,68.81,0,0,1,13.66-1.3V40.65c0-4.66-.61-8-1.83-10s-3.56-3-7-3a9.57,9.57,0,0,0-6,1.72,6,6,0,0,0-2.24,5.06,5.71,5.71,0,0,0,1.14,3.28,4.91,4.91,0,0,0,3,2,4.75,4.75,0,0,1-2,3.65A7.15,7.15,0,0,1,317.2,45q-4.38,0-6.47-2.61a9.23,9.23,0,0,1-2.08-5.94,8,8,0,0,1,2.81-6,19,19,0,0,1,7.3-4,30.37,30.37,0,0,1,9.17-1.41q9.18,0,14.55,4.28a13.79,13.79,0,0,1,5.37,11.36V67.54a5.46,5.46,0,0,0,1.2,3.49A5.28,5.28,0,0,0,352.23,73ZM336.77,50.15q-9,0-13.66,3.49t-4.69,10.27a9.52,9.52,0,0,0,2.19,6.41,6.73,6.73,0,0,0,5.31,2.56,7.86,7.86,0,0,0,4.12-1.1A21,21,0,0,0,334,68.6a12.33,12.33,0,0,0,2.82-4.27Z"></path><path d="M388.48,26.59v3.12H374.09V60.89a15.2,15.2,0,0,0,2.3,8.76A6.92,6.92,0,0,0,382.33,73c2.78,0,4.9-.74,6.36-2.24s2.36-3.87,2.71-7.14h4a12.8,12.8,0,0,1-4.32,9.12,14.68,14.68,0,0,1-10,3.39Q373,76.11,368,72.2A12.35,12.35,0,0,1,363,62V29.71H352.41V26.59a16.49,16.49,0,0,0,8.6-2.35,17.31,17.31,0,0,0,6.25-6.52,18.57,18.57,0,0,0,2.35-9.28h4.48V26.59Z"></path><path d="M441.86,60.47a15,15,0,0,1-3.75,8.13,21.6,21.6,0,0,1-7.61,5.53,22.54,22.54,0,0,1-9.18,2,26.42,26.42,0,0,1-9.59-1.77,22.18,22.18,0,0,1-7.82-5q-7.5-7.19-7.5-18.76t7.19-18.88a22.23,22.23,0,0,1,8.34-5A31.52,31.52,0,0,1,422.26,25a25.2,25.2,0,0,1,10.22,1.88,15.46,15.46,0,0,1,6.52,5,11.25,11.25,0,0,1,2.24,6.68,9.26,9.26,0,0,1-2.09,5.94q-2.08,2.61-6.46,2.61a7.15,7.15,0,0,1-4.64-1.67,4.72,4.72,0,0,1-2-3.65,4.91,4.91,0,0,0,3-2,5.63,5.63,0,0,0,1.15-3.28A10,10,0,0,0,428.27,30q-1.93-2.34-7.35-2.34-5.64,0-8.24,6.62a44.61,44.61,0,0,0-2.62,16.27q0,9.8,3,15.58a10.08,10.08,0,0,0,9.59,5.79,15.18,15.18,0,0,0,9.59-3.44,14,14,0,0,0,5.32-9Z"></path><path d="M499,73.61v.93H473.56V73.6l2.6-.63A6,6,0,0,0,479.24,71a5,5,0,0,0,1.2-3.39v-27q0-6.46-2.35-10a7.4,7.4,0,0,0-6.51-3.54,10.76,10.76,0,0,0-5.37,1.66,15.25,15.25,0,0,0-4.75,4.33,9.34,9.34,0,0,0-1.87,5.48V67.66a5,5,0,0,0,1.2,3.39A6,6,0,0,0,463.86,73l2.61.63v.93H441V73.6l3.13-.63A5.28,5.28,0,0,0,447.31,71a5.46,5.46,0,0,0,1.2-3.49v-59a5.49,5.49,0,0,0-1.2-3.5,5.32,5.32,0,0,0-3.18-1.92L441,2.54v-1h18.56v28.9a16.45,16.45,0,0,1,6.05-4.69A18.06,18.06,0,0,1,473.42,24a22,22,0,0,1,7.2,1.15,16.92,16.92,0,0,1,5.63,3.12,14.56,14.56,0,0,1,5.21,11.37V67.54a5.46,5.46,0,0,0,1.2,3.49A5.28,5.28,0,0,0,495.84,73Z"></path></g></g></svg>